<svg id="Capa_1" enable-background="new 0 0 512 512" height="512" viewBox="0 0 512 512" width="512" xmlns="http://www.w3.org/2000/svg"><g><path d="m170.648 428.504c13.23 27.449 55.675 37.253 60.471 38.281 1.585.506 11.85 3.987 17.771 10.854 1.787 2.07 4.379 3.258 7.109 3.258s5.322-1.188 7.112-3.261c5.946-6.895 16.205-10.353 17.772-10.852.491-.106 1.423-.315 2.719-.64 5.644-1.411 16.798-4.638 28.093-10.404 14.932-7.622 25.04-17.066 30.045-28.067 5.555-12.209 4.645-25.7-2.703-40.095-9.235-18.094-13.105-34.967-11.504-50.15 1.229-11.653 5.365-18.779 7.086-21.302 2.703-3.961 1.986-9.297-1.665-12.412l-24.395-20.817c-2.87-2.45-6.902-2.942-10.27-1.258-22.297 11.136-33.348 4.05-36.203 1.611-3.527-3.009-8.646-3.008-12.178.001-2.855 2.438-13.904 9.523-36.198-1.611-3.371-1.685-7.402-1.191-10.273 1.258l-24.393 20.815c-3.652 3.116-4.369 8.452-1.666 12.413 1.721 2.523 5.856 9.649 7.086 21.302 1.602 15.184-2.269 32.056-11.504 50.15-7.521 14.737-8.299 28.506-2.312 40.926zm15.673-34.106c21.554-42.226 12.448-70.378 6.073-82.357l18.011-15.37c11.363 5.11 21.974 6.997 31.571 5.61 6.159-.89 10.82-2.999 14.023-4.978 3.204 1.979 7.864 4.088 14.023 4.978 9.601 1.389 20.206-.498 31.571-5.611l18.011 15.37c-6.375 11.979-15.48 40.131 6.073 82.357 5.237 10.262 6.025 19.115 2.409 27.064-6.851 15.059-29.35 25.439-48.122 30.131-1.489.372-2.377.558-2.451.573-.198.041-.395.088-.589.145-.55.159-11.817 3.482-20.926 11.312-9.11-7.831-20.376-11.153-20.926-11.312-.194-.056-.39-.104-.587-.144-11.034-2.243-41.583-12.035-50.327-30.175-3.894-8.084-3.187-17.11 2.163-27.593z"/><path d="m229.439 382.669-3.104 18.095c-.601 3.493.807 6.958 3.674 9.043 2.866 2.084 6.597 2.355 9.737.706l16.254-8.546 16.255 8.545c1.364.717 2.841 1.072 4.31 1.072 1.909 0 3.807-.599 5.427-1.777 2.867-2.084 4.274-5.55 3.675-9.039l-3.104-18.099 13.15-12.818c2.538-2.475 3.435-6.106 2.339-9.477-1.097-3.37-3.955-5.78-7.462-6.289l-18.173-2.641-8.127-16.468c-1.569-3.178-4.745-5.152-8.289-5.152s-6.72 1.975-8.289 5.153l-8.127 16.467-18.17 2.641c-3.509.509-6.368 2.919-7.465 6.289-1.096 3.371-.199 7.003 2.339 9.478zm58.992-13.74c.001 0 .001 0 0 0-.003 0-.008-.001-.012-.001zm-42.787-3.208c2.442-.355 4.554-1.889 5.646-4.102l4.71-9.544 4.71 9.544c1.093 2.213 3.204 3.747 5.646 4.102l10.532 1.531-7.621 7.429c-1.768 1.723-2.574 4.206-2.156 6.638l1.799 10.489-9.42-4.952c-2.186-1.149-4.795-1.149-6.98 0l-9.42 4.952 1.799-10.489c.418-2.433-.389-4.916-2.156-6.638l-7.621-7.429z"/><path d="m361.479 90.78h-54.891c-4.143 0-7.5 3.358-7.5 7.5s3.357 7.5 7.5 7.5h54.891c4.143 0 7.5-3.358 7.5-7.5s-3.357-7.5-7.5-7.5z"/><path d="m361.479 128.962h-54.891c-4.143 0-7.5 3.358-7.5 7.5s3.357 7.5 7.5 7.5h54.891c4.143 0 7.5-3.358 7.5-7.5s-3.357-7.5-7.5-7.5z"/><path d="m361.479 167.145h-54.891c-4.143 0-7.5 3.358-7.5 7.5s3.357 7.5 7.5 7.5h54.891c4.143 0 7.5-3.358 7.5-7.5 0-4.143-3.357-7.5-7.5-7.5z"/><path d="m428.008 395.71c4.143 0 7.5-3.358 7.5-7.5v-360.71c0-15.164-12.337-27.5-27.5-27.5h-304.016c-15.163 0-27.5 12.336-27.5 27.5v86.369c0 4.142 3.357 7.5 7.5 7.5s7.5-3.358 7.5-7.5v-86.369c0-6.893 5.607-12.5 12.5-12.5h304.016c6.893 0 12.5 5.607 12.5 12.5v221h-329.016v-101.945c0-4.142-3.357-7.5-7.5-7.5s-7.5 3.358-7.5 7.5v337.945c0 15.164 12.337 27.5 27.5 27.5h304.016c15.163 0 27.5-12.336 27.5-27.5v-63.604c0-4.142-3.357-7.5-7.5-7.5s-7.5 3.358-7.5 7.5v63.604c0 6.893-5.607 12.5-12.5 12.5h-304.016c-6.893 0-12.5-5.607-12.5-12.5v-221h329.016v124.71c0 4.142 3.357 7.5 7.5 7.5z"/><path d="m297.444 33.108h-159.402c-15.163 0-27.5 12.336-27.5 27.5v142.284c0 15.164 12.337 27.5 27.5 27.5h235.916c15.163 0 27.5-12.336 27.5-27.5v-142.284c0-15.164-12.337-27.5-27.5-27.5h-43.827c-4.143 0-7.5 3.358-7.5 7.5s3.357 7.5 7.5 7.5h43.827c6.893 0 12.5 5.607 12.5 12.5v142.284c0 6.893-5.607 12.5-12.5 12.5h-89.136v-22.399c0-23.474-17.424-42.947-40.017-46.186 5.792-6.963 9.281-15.905 9.281-25.648v-12.967c0-22.147-18.018-40.166-40.166-40.166s-40.166 18.019-40.166 40.166v12.967c0 9.743 3.49 18.685 9.282 25.648-22.592 3.239-40.016 22.712-40.016 46.186v22.399h-4.978c-6.893 0-12.5-5.607-12.5-12.5v-142.284c0-6.893 5.607-12.5 12.5-12.5h159.402c4.143 0 7.5-3.358 7.5-7.5s-3.357-7.5-7.5-7.5zm-108.689 75.084c0-13.877 11.29-25.166 25.167-25.166 13.876 0 25.165 11.289 25.165 25.166v12.967c0 13.876-11.289 25.166-25.165 25.166h-.001c-13.877 0-25.166-11.29-25.166-25.166zm-30.735 84.801c0-17.462 14.206-31.668 31.668-31.668h48.466c17.462 0 31.668 14.206 31.668 31.668v22.399h-111.802z"/></g></svg>