<svg id="_x31_" height="512" viewBox="0 0 24 24" width="512" xmlns="http://www.w3.org/2000/svg"><path d="m21.5 20h-19c-1.379 0-2.5-1.122-2.5-2.5v-1.338c0-.612.39-1.152.97-1.346 1.215-.404 2.03-1.536 2.03-2.816s-.815-2.412-2.03-2.816c-.58-.194-.97-.734-.97-1.346v-1.338c0-1.378 1.121-2.5 2.5-2.5h19c1.379 0 2.5 1.122 2.5 2.5v1.338c0 .611-.39 1.152-.97 1.345-1.215.406-2.03 1.538-2.03 2.817s.815 2.411 2.029 2.816c.581.194.971.735.971 1.347v1.337c0 1.378-1.121 2.5-2.5 2.5zm-19-15c-.827 0-1.5.673-1.5 1.5v1.338c0 .181.115.34.286.397 1.623.541 2.714 2.054 2.714 3.765s-1.091 3.224-2.714 3.765c-.171.057-.286.216-.286.397v1.338c0 .827.673 1.5 1.5 1.5h19c.827 0 1.5-.673 1.5-1.5v-1.337c0-.181-.115-.34-.286-.397-1.623-.542-2.714-2.055-2.714-3.766s1.091-3.224 2.714-3.765c.171-.057.286-.216.286-.397v-1.338c0-.827-.673-1.5-1.5-1.5z"/><path d="m12 15c-.276 0-.5-.224-.5-.5v-5c0-.276.224-.5.5-.5s.5.224.5.5v5c0 .276-.224.5-.5.5z"/><path d="m15 15c-.276 0-.5-.224-.5-.5v-5c0-.276.224-.5.5-.5h1.5c1.103 0 2 .897 2 2s-.897 2-2 2h-1v1.5c0 .276-.224.5-.5.5zm.5-3h1c.552 0 1-.449 1-1s-.448-1-1-1h-1z"/><path d="m7.5 15c-.221 0-.415-.145-.479-.356l-1.5-5c-.08-.264.07-.543.335-.623.263-.079.543.07.622.335l1.022 3.404 1.021-3.403c.079-.265.359-.413.622-.335.265.08.415.358.335.623l-1.5 5c-.063.21-.257.355-.478.355z"/></svg>