<svg id="svg" version="1.1" xmlns="http://www.w3.org/2000/svg" xmlns:xlink="http://www.w3.org/1999/xlink" width="400" height="400" viewBox="0, 0, 400,400"><g id="svgg"><path id="path0" d="M21.600 86.000 C 21.600 86.220,20.981 86.400,20.224 86.400 C 19.467 86.400,18.736 86.580,18.600 86.800 C 18.464 87.020,17.958 87.204,17.476 87.209 C 16.994 87.214,16.150 87.570,15.600 88.000 C 15.050 88.430,14.375 88.786,14.100 88.791 C 13.825 88.796,13.600 88.980,13.600 89.200 C 13.600 89.420,13.240 89.600,12.800 89.600 C 12.360 89.600,12.000 89.741,12.000 89.914 C 12.000 90.086,11.495 90.526,10.878 90.890 C 9.295 91.825,5.509 95.589,4.832 96.900 C 4.520 97.505,4.115 98.000,3.932 98.000 C 3.750 98.000,3.600 98.360,3.600 98.800 C 3.600 99.240,3.420 99.600,3.200 99.600 C 2.980 99.600,2.796 99.825,2.791 100.100 C 2.786 100.375,2.430 101.050,2.000 101.600 C 1.570 102.150,1.214 102.990,1.209 103.467 C 1.204 103.943,0.975 104.408,0.700 104.500 C 0.320 104.627,0.200 106.831,0.200 113.713 C 0.200 120.416,0.329 122.889,0.700 123.260 C 0.975 123.535,1.200 124.084,1.200 124.480 C 1.200 124.876,1.380 125.200,1.600 125.200 C 1.820 125.200,2.000 125.560,2.000 126.000 C 2.000 126.440,2.180 126.800,2.400 126.800 C 2.620 126.800,2.800 127.160,2.800 127.600 C 2.800 128.040,2.980 128.400,3.200 128.400 C 3.420 128.400,3.600 128.720,3.600 129.112 C 3.600 129.503,3.960 130.083,4.400 130.400 C 4.840 130.717,5.200 131.200,5.200 131.473 C 5.200 132.023,8.039 135.170,11.939 138.943 C 13.336 140.294,17.243 144.190,20.621 147.600 C 24.000 151.010,27.448 154.480,28.282 155.311 C 33.016 160.025,43.229 170.227,44.600 171.609 C 45.480 172.497,49.170 176.187,52.800 179.810 C 60.977 187.972,62.028 189.023,70.190 197.200 C 78.350 205.376,78.352 205.378,86.400 213.409 C 90.030 217.032,93.720 220.722,94.600 221.609 C 95.480 222.497,99.170 226.187,102.800 229.810 C 110.977 237.972,112.028 239.023,120.190 247.200 C 128.350 255.376,128.352 255.378,136.400 263.409 C 140.030 267.032,143.720 270.722,144.600 271.609 C 145.480 272.497,149.170 276.187,152.800 279.810 C 156.430 283.433,160.300 287.302,161.400 288.408 C 162.500 289.514,166.010 293.006,169.200 296.169 C 172.390 299.331,176.273 303.242,177.828 304.859 C 179.383 306.477,181.183 308.069,181.828 308.397 C 182.473 308.726,183.291 309.311,183.647 309.697 C 184.003 310.084,184.588 310.400,184.947 310.400 C 185.306 310.400,185.600 310.580,185.600 310.800 C 185.600 311.020,185.960 311.200,186.400 311.200 C 186.840 311.200,187.200 311.380,187.200 311.600 C 187.200 311.820,187.560 312.000,188.000 312.000 C 188.440 312.000,188.800 312.180,188.800 312.400 C 188.800 312.620,189.239 312.800,189.776 312.800 C 190.313 312.800,190.864 312.980,191.000 313.200 C 191.136 313.420,191.676 313.600,192.200 313.600 C 192.724 313.600,193.264 313.780,193.400 314.000 C 193.731 314.536,206.269 314.536,206.600 314.000 C 206.736 313.780,207.276 313.600,207.800 313.600 C 208.324 313.600,208.864 313.420,209.000 313.200 C 209.136 312.980,209.687 312.800,210.224 312.800 C 210.761 312.800,211.200 312.620,211.200 312.400 C 211.200 312.180,211.560 312.000,212.000 312.000 C 212.440 312.000,212.800 311.820,212.800 311.600 C 212.800 311.380,213.160 311.200,213.600 311.200 C 214.040 311.200,214.400 311.020,214.400 310.800 C 214.400 310.580,214.694 310.400,215.053 310.400 C 215.412 310.400,215.997 310.084,216.353 309.697 C 216.709 309.311,217.527 308.726,218.172 308.397 C 218.817 308.069,220.617 306.477,222.172 304.859 C 223.727 303.242,227.610 299.331,230.800 296.169 C 233.990 293.006,237.500 289.514,238.600 288.408 C 239.700 287.302,243.570 283.433,247.200 279.810 C 250.830 276.187,254.499 272.522,255.354 271.665 C 257.370 269.644,269.644 257.370,271.665 255.354 C 272.522 254.499,276.187 250.830,279.810 247.200 C 287.972 239.023,289.023 237.972,297.200 229.810 C 300.830 226.187,304.520 222.501,305.400 221.619 C 307.475 219.539,319.539 207.475,321.619 205.400 C 322.501 204.520,326.187 200.830,329.810 197.200 C 337.972 189.023,339.023 187.972,347.200 179.810 C 350.830 176.187,354.478 172.543,355.308 171.711 C 358.394 168.617,370.163 156.853,371.671 155.354 C 372.531 154.499,376.000 151.010,379.379 147.600 C 382.757 144.190,386.664 140.294,388.061 138.943 C 391.961 135.170,394.800 132.023,394.800 131.473 C 394.800 131.200,395.160 130.717,395.600 130.400 C 396.040 130.083,396.400 129.503,396.400 129.112 C 396.400 128.720,396.580 128.400,396.800 128.400 C 397.020 128.400,397.200 128.040,397.200 127.600 C 397.200 127.160,397.336 126.800,397.502 126.800 C 397.669 126.800,398.044 126.215,398.336 125.500 C 398.628 124.785,399.077 123.767,399.334 123.238 C 400.016 121.830,399.985 104.728,399.300 104.500 C 399.025 104.408,398.796 103.943,398.791 103.467 C 398.786 102.990,398.430 102.150,398.000 101.600 C 397.570 101.050,397.214 100.375,397.209 100.100 C 397.204 99.825,397.020 99.600,396.800 99.600 C 396.580 99.600,396.400 99.240,396.400 98.800 C 396.400 98.360,396.250 98.000,396.068 98.000 C 395.885 98.000,395.480 97.505,395.168 96.900 C 394.562 95.727,391.619 92.722,389.780 91.400 C 389.169 90.960,388.441 90.375,388.163 90.100 C 387.885 89.825,387.374 89.600,387.029 89.600 C 386.683 89.600,386.400 89.420,386.400 89.200 C 386.400 88.980,386.040 88.800,385.600 88.800 C 385.160 88.800,384.799 88.665,384.797 88.500 C 384.793 88.099,382.819 87.200,381.944 87.200 C 381.561 87.200,381.136 87.020,381.000 86.800 C 380.864 86.580,380.223 86.400,379.576 86.400 C 378.929 86.400,378.400 86.220,378.400 86.000 C 378.400 85.749,375.933 85.600,371.800 85.600 C 367.667 85.600,365.200 85.749,365.200 86.000 C 365.200 86.220,364.660 86.400,364.000 86.400 C 363.340 86.400,362.800 86.580,362.800 86.800 C 362.800 87.020,362.260 87.200,361.600 87.200 C 360.940 87.200,360.400 87.346,360.400 87.525 C 360.400 87.704,359.770 88.098,359.000 88.400 C 358.230 88.702,357.600 89.096,357.600 89.275 C 357.600 89.454,357.328 89.600,356.996 89.600 C 356.664 89.600,355.828 90.140,355.137 90.800 C 354.446 91.460,353.646 92.000,353.358 92.000 C 353.070 92.000,350.442 94.437,347.518 97.416 C 344.593 100.395,340.702 104.310,338.871 106.116 C 337.041 107.922,333.131 111.830,330.182 114.800 C 323.490 121.542,321.542 123.490,314.800 130.182 C 311.830 133.131,307.925 137.041,306.123 138.871 C 304.321 140.702,300.631 144.392,297.923 147.071 C 295.215 149.750,291.525 153.440,289.722 155.271 C 287.919 157.102,284.049 160.971,281.122 163.868 C 278.195 166.765,274.505 170.455,272.922 172.068 C 271.340 173.681,267.650 177.372,264.722 180.271 C 261.795 183.170,257.925 187.040,256.123 188.871 C 254.321 190.702,250.631 194.392,247.923 197.071 C 245.215 199.750,241.525 203.440,239.722 205.271 C 237.919 207.102,234.049 210.971,231.122 213.868 C 228.195 216.765,224.505 220.455,222.922 222.068 C 221.340 223.681,217.650 227.372,214.722 230.271 C 211.795 233.170,207.942 237.040,206.160 238.871 C 204.377 240.702,202.262 242.779,201.460 243.488 L 200.000 244.775 198.540 243.488 C 197.738 242.779,195.623 240.702,193.840 238.871 C 192.058 237.040,188.205 233.170,185.278 230.271 C 182.350 227.372,178.660 223.681,177.078 222.068 C 175.495 220.455,171.803 216.765,168.873 213.868 C 165.944 210.971,162.074 207.094,160.273 205.254 C 158.473 203.413,154.785 199.723,152.077 197.054 C 149.369 194.384,145.679 190.702,143.877 188.871 C 142.075 187.041,138.170 183.131,135.200 180.182 C 132.230 177.234,128.720 173.733,127.400 172.403 C 126.080 171.073,122.390 167.382,119.200 164.202 C 116.010 161.022,112.320 157.332,111.000 156.002 C 109.680 154.672,105.990 150.983,102.800 147.803 C 99.610 144.623,95.740 140.753,94.200 139.203 C 92.660 137.654,88.790 133.783,85.600 130.603 C 82.410 127.422,78.720 123.732,77.400 122.402 C 76.080 121.072,72.390 117.382,69.200 114.202 C 62.782 107.804,61.205 106.219,52.872 97.792 C 49.722 94.607,46.913 92.000,46.631 92.000 C 46.349 92.000,45.554 91.460,44.863 90.800 C 44.172 90.140,43.336 89.600,43.004 89.600 C 42.672 89.600,42.400 89.420,42.400 89.200 C 42.400 88.980,42.130 88.800,41.800 88.800 C 41.470 88.800,41.200 88.620,41.200 88.400 C 41.200 88.180,40.840 88.000,40.400 88.000 C 39.960 88.000,39.600 87.820,39.600 87.600 C 39.600 87.380,39.060 87.200,38.400 87.200 C 37.740 87.200,37.200 87.020,37.200 86.800 C 37.200 86.580,36.660 86.400,36.000 86.400 C 35.340 86.400,34.800 86.220,34.800 86.000 C 34.800 85.749,32.333 85.600,28.200 85.600 C 24.067 85.600,21.600 85.749,21.600 86.000 " stroke="none" fill="#040404" fill-rule="evenodd"></path><path id="path1" d="" stroke="none" fill="#080404" fill-rule="evenodd"></path><path id="path2" d="" stroke="none" fill="#080404" fill-rule="evenodd"></path><path id="path3" d="" stroke="none" fill="#080404" fill-rule="evenodd"></path><path id="path4" d="" stroke="none" fill="#080404" fill-rule="evenodd"></path></g></svg>