<?xml version="1.0" standalone="no"?>
<!DOCTYPE svg PUBLIC "-//W3C//DTD SVG 20010904//EN"
 "http://www.w3.org/TR/2001/REC-SVG-20010904/DTD/svg10.dtd">
<svg version="1.0" xmlns="http://www.w3.org/2000/svg"
 width="64.000000pt" height="64.000000pt" viewBox="0 0 64.000000 64.000000"
 preserveAspectRatio="xMidYMid meet">

<g transform="translate(0.000000,64.000000) scale(0.100000,-0.100000)"
fill="#000000" stroke="none">
<path d="M70 321 c0 -272 2 -310 16 -315 20 -8 448 -8 468 0 14 5 16 43 16
315 l0 309 -250 0 -250 0 0 -309z m122 252 l3 -28 125 0 125 0 3 28 c3 25 7
27 48 27 l44 0 0 -285 0 -285 -220 0 -220 0 0 285 0 285 44 0 c41 0 45 -2 48
-27z m228 12 c0 -12 -18 -15 -100 -15 -82 0 -100 3 -100 15 0 12 18 15 100 15
82 0 100 -3 100 -15z"/>
<path d="M240 435 c0 -12 16 -15 80 -15 64 0 80 3 80 15 0 12 -16 15 -80 15
-64 0 -80 -3 -80 -15z"/>
<path d="M160 311 c0 -5 7 -12 16 -15 20 -8 268 -8 288 0 44 17 1 24 -144 24
-88 0 -160 -4 -160 -9z"/>
<path d="M165 240 c-3 -5 0 -12 7 -15 26 -10 303 0 301 10 -4 14 -299 19 -308
5z"/>
<path d="M160 161 c0 -5 7 -12 16 -15 20 -8 268 -8 288 0 44 17 1 24 -144 24
-88 0 -160 -4 -160 -9z"/>
</g>
</svg>
