<?xml version="1.0" standalone="no"?>
<!DOCTYPE svg PUBLIC "-//W3C//DTD SVG 20010904//EN"
 "http://www.w3.org/TR/2001/REC-SVG-20010904/DTD/svg10.dtd">
<svg version="1.0" xmlns="http://www.w3.org/2000/svg"
 width="512.000000pt" height="412.000000pt" viewBox="0 0 512.000000 412.000000"
 preserveAspectRatio="xMidYMid meet">

<g transform="translate(0.000000,512.000000) scale(0.100000,-0.100000)"
fill="#000000" stroke="none">
<path d="M1618 4900 c-211 -19 -436 -72 -634 -149 -173 -67 -407 -191 -451
-239 -41 -44 -27 -124 27 -155 46 -28 76 -20 195 48 335 192 671 285 1035 285
366 0 694 -93 1009 -285 128 -78 156 -82 207 -31 37 37 44 74 22 121 -22 49
-299 203 -501 279 -274 102 -626 151 -909 126z"/>
<path d="M1560 4470 c-509 -69 -987 -372 -1284 -814 -70 -104 -74 -140 -22
-192 26 -26 42 -34 71 -34 45 0 68 22 174 168 98 136 277 308 414 400 556 371
1237 361 1789 -28 92 -65 258 -220 336 -315 l41 -50 28 35 c15 19 47 56 71 82
l43 46 -59 69 c-278 323 -658 542 -1072 620 -99 18 -430 26 -530 13z"/>
<path d="M1565 4045 c-526 -86 -924 -433 -1068 -935 -66 -227 -79 -514 -37
-769 23 -139 72 -332 110 -434 34 -90 98 -120 166 -78 57 35 60 70 19 202 -76
241 -105 410 -105 624 0 334 92 603 282 821 192 221 466 349 795 370 324 22
657 -108 899 -350 102 -102 162 -184 227 -305 l44 -83 8 59 c4 32 20 100 37
152 l30 93 -38 57 c-21 31 -90 108 -154 172 -204 204 -420 325 -700 390 -115
27 -388 34 -515 14z"/>
<path d="M3827 3830 c-340 -58 -599 -298 -689 -640 -27 -105 -27 -286 1 -395
84 -325 350 -573 676 -630 48 -8 107 -15 130 -15 42 0 42 0 64 -57 28 -72 59
-113 104 -138 35 -19 37 -24 222 -534 103 -284 198 -541 212 -571 28 -64 64
-104 115 -131 49 -25 95 -24 149 4 61 32 89 83 89 165 0 56 -19 115 -201 613
-156 427 -199 557 -194 578 17 64 16 137 -3 192 l-20 56 65 64 c343 339 339
884 -10 1216 -190 180 -460 265 -710 223z m283 -222 c25 -5 83 -29 130 -51
165 -80 297 -250 335 -432 82 -390 -215 -756 -615 -758 -108 0 -174 15 -279
65 -68 33 -101 56 -166 122 -126 126 -185 267 -185 441 0 174 59 315 185 440
164 165 371 225 595 173z"/>
<path d="M1583 3625 c-372 -67 -630 -325 -706 -705 -38 -189 -29 -390 28 -615
70 -278 220 -578 418 -838 94 -124 177 -221 200 -234 69 -39 157 14 157 94 0
33 -12 51 -129 195 -235 287 -409 631 -468 925 -26 129 -23 361 5 466 67 246
244 427 479 488 112 29 249 35 350 16 167 -32 279 -94 413 -227 78 -77 104
-112 142 -185 57 -111 86 -212 95 -329 8 -109 31 -144 100 -153 39 -5 46 -2
79 31 l37 37 -6 107 c-21 383 -285 743 -645 878 -48 18 -122 39 -164 48 -93
19 -282 20 -385 1z"/>
<path d="M1674 3215 c-187 -41 -328 -181 -379 -376 -23 -84 -15 -315 13 -439
75 -320 269 -645 513 -857 100 -87 246 -184 353 -233 99 -46 242 -90 291 -90
69 0 119 77 92 142 -18 44 -31 53 -102 73 -215 60 -370 151 -542 318 -56 54
-131 140 -167 190 -242 340 -329 796 -186 970 147 177 466 114 549 -108 11
-29 25 -98 30 -152 17 -164 60 -262 164 -370 190 -199 522 -206 727 -16 83 77
87 85 54 128 -15 20 -44 68 -64 107 l-38 71 -20 -46 c-29 -65 -93 -131 -155
-158 -73 -32 -191 -32 -262 -1 -103 47 -167 138 -186 264 -36 245 -71 332
-178 439 -132 131 -320 185 -507 144z"/>
<path d="M1762 2815 c-43 -19 -62 -66 -62 -153 0 -205 80 -430 216 -609 254
-333 665 -495 1122 -442 112 13 145 27 168 70 21 42 12 88 -26 124 l-30 28
-144 -11 c-172 -14 -303 -4 -434 34 -257 74 -469 250 -578 479 -52 110 -74
198 -80 325 -5 109 -14 133 -59 155 -40 18 -51 18 -93 0z"/>
</g>
</svg>
