<?xml version="1.0" standalone="no"?>
<!DOCTYPE svg PUBLIC "-//W3C//DTD SVG 20010904//EN"
 "http://www.w3.org/TR/2001/REC-SVG-20010904/DTD/svg10.dtd">
<svg version="1.0" xmlns="http://www.w3.org/2000/svg"
 width="512.000000pt" height="512.000000pt" viewBox="0 0 512.000000 512.000000"
 preserveAspectRatio="xMidYMid meet">

<g transform="translate(0.000000,512.000000) scale(0.100000,-0.100000)"
fill="#000000" stroke="none">
<path d="M1270 5110 c-247 -34 -499 -138 -696 -286 -94 -71 -257 -241 -319
-334 -72 -108 -147 -262 -183 -376 -51 -161 -66 -260 -67 -439 0 -253 42 -432
155 -660 86 -171 182 -295 346 -443 l65 -58 -172 -390 c-168 -379 -172 -391
-176 -469 -7 -110 19 -179 96 -256 77 -76 146 -103 256 -97 96 5 165 36 230
103 43 45 68 97 321 678 l69 157 60 -7 c33 -5 134 -8 225 -7 129 0 187 5 265
22 54 12 100 20 102 18 2 -1 -1 -16 -6 -32 -6 -16 -15 -48 -21 -71 -9 -35 -15
-43 -33 -43 -46 0 -161 -66 -213 -122 -60 -63 -88 -114 -109 -195 -22 -84 -22
-1035 0 -1109 17 -58 68 -122 119 -149 l36 -20 0 -145 c0 -173 14 -232 67
-291 71 -79 91 -84 318 -84 221 0 234 3 303 69 68 63 76 93 80 274 l4 162 769
0 769 0 0 -157 c0 -145 2 -162 24 -209 27 -59 82 -107 145 -129 62 -21 360
-21 421 0 62 22 115 69 144 127 25 50 26 59 26 219 l0 167 29 12 c41 16 97 75
121 125 20 42 21 56 18 598 l-3 554 -37 72 -36 71 52 0 c114 0 211 54 259 144
19 35 22 57 22 156 0 127 -9 155 -69 218 -63 68 -93 76 -276 80 -195 5 -252
-5 -315 -54 -25 -18 -45 -31 -45 -28 0 24 -196 726 -211 756 -29 57 -93 116
-158 147 l-56 26 -553 3 -553 2 8 63 c16 123 8 374 -16 484 -60 284 -196 536
-397 737 -204 204 -470 345 -755 401 -98 19 -355 28 -449 15z m418 -185 c260
-50 493 -176 680 -369 174 -180 284 -386 338 -636 26 -118 26 -381 1 -500 -84
-392 -324 -713 -668 -890 -192 -99 -364 -140 -585 -140 -316 0 -607 109 -841
315 -436 383 -563 997 -313 1519 84 177 261 384 421 493 174 119 378 197 587
223 90 12 279 4 380 -15z m2304 -1715 c20 -13 43 -36 51 -50 14 -23 277 -990
277 -1017 0 -10 -111 -13 -522 -13 l-523 0 283 283 c203 203 282 289 282 305
0 31 -25 78 -45 86 -9 3 -31 6 -48 6 -28 0 -69 -38 -372 -340 l-340 -340 -258
0 c-141 0 -257 3 -257 7 0 4 124 132 275 283 247 248 275 279 275 308 0 46
-38 82 -87 82 -36 0 -51 -14 -378 -340 l-340 -340 -138 0 c-75 0 -137 3 -137
8 0 4 13 51 28 104 l27 97 111 64 c192 110 331 231 460 402 76 100 155 246
190 350 l29 85 561 -2 560 -3 36 -25z m-3025 -907 c29 -9 53 -22 53 -28 0 -17
-310 -716 -329 -741 -25 -35 -84 -64 -131 -64 -91 0 -160 63 -168 153 -4 50 4
71 159 423 l163 371 100 -48 c54 -27 123 -57 153 -66z m3954 58 c27 -27 29
-35 29 -100 0 -59 -4 -74 -24 -98 l-24 -28 -191 -3 -191 -3 0 93 c0 158 13
168 223 168 l149 0 29 -29z m-373 -427 c77 -38 141 -127 142 -196 l0 -28 -296
0 c-187 0 -312 -4 -340 -11 -64 -16 -99 -57 -162 -187 -49 -101 -54 -119 -50
-162 6 -57 41 -110 91 -138 28 -15 72 -17 395 -20 l362 -3 0 -229 0 -228 -31
-26 -31 -26 -1479 2 -1478 3 -23 23 c-22 22 -23 28 -26 252 l-3 229 363 3
c325 3 367 5 399 21 56 28 83 72 87 142 3 55 -1 68 -43 155 -55 113 -85 154
-128 178 -28 15 -70 17 -355 20 l-323 3 7 37 c4 20 15 53 25 73 23 46 98 112
141 126 22 8 464 11 1369 12 l1335 1 52 -26z m-2290 -479 c23 -47 42 -88 42
-90 0 -3 -152 -4 -337 -3 l-338 3 -3 74 c-2 41 -1 80 2 88 4 10 62 13 298 13
l294 0 42 -85z m2432 -5 l0 -90 -335 0 c-222 0 -335 3 -335 10 0 6 18 46 40
90 l40 80 295 0 295 0 0 -90z m-2470 -1081 l0 -141 -29 -29 -29 -29 -156 0
c-149 0 -156 1 -183 24 -28 24 -28 24 -31 170 l-3 146 215 0 216 0 0 -141z
m2300 -2 c0 -202 2 -200 -235 -195 -193 4 -185 -4 -185 194 l0 144 210 0 210
0 0 -143z"/>
<path d="M1370 4773 c-395 -34 -732 -261 -905 -608 -214 -429 -142 -916 186
-1259 205 -215 458 -330 750 -343 317 -14 607 97 828 316 538 533 398 1432
-276 1775 -171 88 -403 135 -583 119z m175 -173 c121 -14 192 -34 304 -86 406
-189 624 -649 511 -1079 -49 -185 -173 -379 -320 -496 -90 -72 -246 -151 -355
-181 -108 -29 -347 -31 -445 -5 -198 54 -341 137 -466 269 -480 510 -263 1335
406 1542 72 22 170 39 255 45 11 0 61 -4 110 -9z"/>
<path d="M1435 4432 c-37 -7 -65 -43 -65 -82 0 -97 142 -111 166 -16 13 52
-46 109 -101 98z"/>
<path d="M1065 4329 c-111 -60 -238 -194 -299 -316 -104 -208 -106 -471 -4
-678 46 -95 96 -115 156 -62 30 27 29 75 -3 137 -39 77 -56 156 -56 260 0 206
95 381 272 501 31 21 59 45 63 54 12 32 6 64 -16 89 -33 36 -66 41 -113 15z"/>
<path d="M2952 1695 c-55 -24 -66 -91 -22 -135 19 -19 34 -20 228 -20 205 0
209 0 230 23 31 33 29 87 -4 118 -25 23 -30 24 -212 26 -146 2 -194 0 -220
-12z"/>
<path d="M2639 1337 c-19 -12 -44 -42 -57 -67 -21 -41 -23 -56 -20 -176 3
-126 4 -132 31 -167 57 -75 36 -72 568 -72 l475 0 41 27 c63 41 73 74 73 231
0 123 -2 137 -23 168 -12 18 -38 44 -56 56 l-34 23 -482 0 -482 0 -34 -23z
m941 -232 l0 -85 -425 0 -425 0 0 85 0 85 425 0 425 0 0 -85z"/>
</g>
</svg>
