<?xml version="1.0" standalone="no"?>
<!DOCTYPE svg PUBLIC "-//W3C//DTD SVG 20010904//EN"
 "http://www.w3.org/TR/2001/REC-SVG-20010904/DTD/svg10.dtd">
<svg version="1.0" xmlns="http://www.w3.org/2000/svg"
 width="512.000000pt" height="512.000000pt" viewBox="0 0 512.000000 512.000000"
 preserveAspectRatio="xMidYMid meet">

<g transform="translate(0.000000,512.000000) scale(0.100000,-0.100000)"
fill="#000000" stroke="none">
<path d="M105 5015 l-25 -24 0 -2431 0 -2431 25 -24 24 -25 1711 0 1711 0 24
25 25 24 0 296 0 295 85 0 c65 0 85 -3 85 -14 0 -7 16 -45 35 -83 43 -86 103
-144 193 -186 61 -29 76 -32 162 -32 86 0 101 3 162 32 90 42 150 100 193 186
19 38 35 76 35 83 0 11 41 14 220 14 l221 0 25 25 26 26 -4 222 -3 223 -37 76
c-45 91 -104 148 -196 191 -59 27 -79 31 -180 35 l-113 5 -197 174 c-108 96
-229 196 -267 223 -95 65 -235 134 -350 172 l-95 31 0 1434 0 1434 -25 24 -24
25 -1711 0 -1711 0 -24 -25z m3335 -1497 l0 -1363 -162 -1 c-172 0 -240 -9
-377 -50 -233 -70 -371 -157 -652 -407 -185 -165 -200 -176 -258 -191 -33 -9
-80 -25 -102 -37 -64 -32 -136 -111 -172 -187 l-32 -67 -3 -222 -4 -222 26
-26 c24 -24 29 -25 166 -25 112 0 140 -3 140 -14 0 -7 16 -45 35 -83 43 -86
103 -144 193 -186 61 -29 76 -32 162 -32 86 0 101 3 162 32 90 42 150 100 193
186 19 38 35 76 35 83 0 12 57 14 325 14 l325 0 0 -240 0 -240 -1600 0 -1600
0 0 2320 0 2320 1600 0 1600 0 0 -1362z m-240 -1758 l0 -240 -450 0 c-247 0
-450 2 -450 4 0 12 271 241 333 282 155 102 333 164 560 193 4 1 7 -107 7
-239z m314 214 c156 -30 351 -116 471 -207 50 -39 263 -226 271 -238 3 -5
-184 -9 -445 -9 l-451 0 0 239 0 240 38 -5 c20 -3 72 -12 116 -20z m1200 -626
c55 -16 138 -99 154 -154 7 -24 12 -100 12 -178 l0 -136 -165 0 c-133 0 -165
3 -165 14 0 7 -16 45 -35 83 -43 86 -103 144 -193 186 -61 29 -76 32 -162 32
-86 0 -101 -3 -162 -32 -90 -42 -150 -100 -193 -186 -19 -38 -35 -76 -35 -83
0 -12 -83 -14 -490 -14 -407 0 -490 2 -490 14 0 7 -16 45 -35 83 -43 86 -103
144 -193 186 -61 29 -76 32 -162 32 -86 0 -101 -3 -162 -32 -90 -42 -150 -100
-193 -186 -19 -38 -35 -76 -35 -83 0 -11 -20 -14 -85 -14 l-85 0 0 136 c0 78
5 154 12 178 15 51 99 137 148 153 53 17 2658 17 2714 1z m-2240 -320 c86 -26
166 -136 166 -228 0 -124 -116 -240 -240 -240 -124 0 -240 116 -240 240 0 63
23 114 75 165 70 71 145 90 239 63z m1760 0 c86 -26 166 -136 166 -228 0 -124
-116 -240 -240 -240 -124 0 -240 116 -240 240 0 63 23 114 75 165 70 71 145
90 239 63z"/>
<path d="M640 4636 l0 -85 -53 -24 c-66 -30 -118 -81 -154 -150 -24 -45 -28
-63 -28 -137 1 -77 4 -91 34 -148 53 -98 139 -156 248 -168 86 -9 119 -21 152
-59 101 -115 -2 -289 -154 -261 -51 10 -103 60 -117 112 l-12 44 -79 0 -80 0
6 -45 c14 -100 89 -199 184 -242 l53 -24 0 -85 0 -84 80 0 80 0 0 84 0 85 53
24 c66 30 118 81 154 150 24 45 28 63 28 137 -1 77 -4 91 -34 148 -53 98 -139
156 -248 168 -86 9 -119 21 -152 59 -57 65 -53 155 8 216 86 87 232 49 263
-67 l12 -44 79 0 80 0 -6 45 c-14 100 -89 199 -184 242 l-53 24 0 85 0 84 -80
0 -80 0 0 -84z"/>
<path d="M1225 4695 l-25 -24 0 -671 0 -671 25 -24 24 -25 991 0 991 0 24 25
25 24 0 671 0 671 -25 24 -24 25 -991 0 -991 0 -24 -25z m1895 -695 l0 -560
-880 0 -880 0 0 560 0 560 880 0 880 0 0 -560z"/>
<path d="M1520 4320 l0 -80 720 0 720 0 0 80 0 80 -720 0 -720 0 0 -80z"/>
<path d="M1520 4000 l0 -80 720 0 720 0 0 80 0 80 -720 0 -720 0 0 -80z"/>
<path d="M1520 3680 l0 -80 720 0 720 0 0 80 0 80 -720 0 -720 0 0 -80z"/>
<path d="M400 3040 l0 -80 1440 0 1440 0 0 80 0 80 -1440 0 -1440 0 0 -80z"/>
<path d="M400 2720 l0 -80 840 0 840 0 0 80 0 80 -840 0 -840 0 0 -80z"/>
<path d="M2550 2665 c-141 -138 -184 -167 -268 -181 l-42 -7 0 -78 c0 -91 -4
-89 108 -64 84 19 153 58 231 131 l61 56 0 -76 c0 -68 3 -80 25 -101 46 -47
75 -36 185 70 128 124 158 138 313 143 l117 4 0 80 0 80 -127 -5 c-149 -5
-207 -21 -290 -77 l-58 -39 -5 81 c-4 69 -8 83 -29 99 -51 41 -73 30 -221
-116z"/>
<path d="M400 2400 l0 -80 840 0 840 0 0 80 0 80 -840 0 -840 0 0 -80z"/>
<path d="M560 1120 l0 -80 80 0 80 0 0 80 0 80 -80 0 -80 0 0 -80z"/>
<path d="M880 1120 l0 -80 320 0 320 0 0 80 0 80 -320 0 -320 0 0 -80z"/>
<path d="M400 800 l0 -80 560 0 560 0 0 80 0 80 -560 0 -560 0 0 -80z"/>
</g>
</svg>
