<?xml version="1.0" standalone="no"?>
<!DOCTYPE svg PUBLIC "-//W3C//DTD SVG 20010904//EN"
 "http://www.w3.org/TR/2001/REC-SVG-20010904/DTD/svg10.dtd">
<svg version="1.0" xmlns="http://www.w3.org/2000/svg"
 width="512.000000pt" height="212.000000pt" viewBox="0 0 512.000000 212.000000"
 preserveAspectRatio="xMidYMid meet">

<g transform="translate(0.000000,512.000000) scale(0.100000,-0.100000)"
fill="#000000" stroke="none">
<path d="M378 4799 c-23 -12 -46 -35 -58 -59 -19 -38 -20 -58 -20 -495 l0
-456 25 -24 c31 -32 69 -32 100 0 l25 24 0 441 0 440 2110 0 2110 0 0 -1480 0
-1480 -305 0 -304 0 -34 53 c-51 78 -152 169 -236 212 -67 33 -101 41 -385 91
-171 30 -321 56 -333 59 -21 5 -23 11 -23 83 l0 77 42 30 c70 49 177 156 225
223 25 35 58 95 73 135 27 69 30 72 77 88 152 52 252 149 304 295 29 83 37
232 15 306 -22 77 -72 147 -130 183 -44 26 -58 30 -126 30 l-77 0 -6 150 c-3
93 -12 173 -22 210 -85 305 -337 513 -690 570 -425 69 -840 -115 -991 -440
-52 -112 -65 -176 -71 -340 l-6 -150 -77 0 c-68 0 -82 -4 -126 -30 -102 -63
-150 -178 -141 -335 13 -224 120 -373 319 -445 l60 -22 27 -69 c48 -124 150
-247 294 -354 l46 -35 1 -77 c0 -72 -2 -78 -22 -83 -13 -3 -163 -29 -334 -59
-281 -49 -319 -58 -383 -91 -84 -42 -207 -153 -242 -220 l-24 -45 -307 0 -308
0 0 915 0 916 -25 24 c-31 32 -69 32 -101 0 l-24 -24 2 -943 3 -943 22 -31
c49 -69 -82 -64 1702 -64 1598 0 1611 0 1631 20 33 33 30 75 -6 107 l-25 23
-1197 0 -1197 1 60 56 c32 31 82 66 110 79 34 15 164 42 405 84 195 34 363 66
372 71 28 15 38 44 38 108 0 34 2 61 5 61 3 0 24 -12 46 -26 23 -14 71 -38
108 -52 57 -22 81 -26 181 -26 100 0 124 4 181 26 37 14 85 38 108 52 22 14
43 26 46 26 3 0 5 -29 5 -65 0 -107 -16 -100 405 -173 280 -49 372 -69 415
-89 71 -34 166 -130 208 -210 22 -41 41 -65 55 -68 12 -3 184 -5 382 -3 354 3
361 3 391 25 69 49 64 -71 64 1602 0 1495 0 1512 -20 1551 -13 26 -34 47 -60
60 -39 20 -54 20 -2182 20 -2114 -1 -2144 -1 -2180 -21z m2417 -458 c259 -67
442 -247 491 -481 13 -63 15 -148 12 -540 l-4 -465 -27 -82 c-51 -153 -134
-246 -365 -412 -64 -46 -146 -98 -182 -115 -59 -28 -74 -31 -161 -31 -90 0
-99 2 -170 37 -78 39 -313 210 -387 281 -65 63 -119 149 -149 240 l-27 82 -4
465 c-4 524 -1 557 65 690 68 139 217 261 381 315 153 49 371 56 527 16z
m-1144 -921 c18 -10 19 -24 19 -255 0 -189 -3 -245 -12 -245 -7 0 -35 17 -63
38 -36 27 -60 56 -85 106 -33 65 -35 75 -35 165 0 111 14 155 59 182 34 21 87
25 117 9z m1929 -5 c51 -26 65 -67 65 -180 -1 -107 -12 -145 -62 -218 -26 -38
-101 -97 -122 -97 -8 0 -11 78 -11 245 0 222 2 245 18 254 25 15 79 13 112 -4z"/>
<path d="M2433 3979 c-151 -48 -263 -187 -279 -348 -8 -71 18 -111 70 -111 45
0 72 33 79 97 7 61 28 106 71 151 53 57 101 77 186 77 57 0 84 -5 115 -22 161
-86 192 -287 65 -414 -48 -48 -119 -79 -182 -79 -39 0 -65 -30 -73 -83 -4 -24
-5 -117 -3 -206 l3 -163 28 -24 c35 -30 59 -30 94 0 l28 24 3 156 c3 118 7
156 17 156 7 0 44 16 82 35 175 87 266 281 219 464 -20 78 -44 121 -105 184
-110 115 -265 155 -418 106z"/>
<path d="M2512 2710 c-47 -44 -15 -130 48 -130 38 0 70 34 70 75 0 41 -32 75
-70 75 -14 0 -36 -9 -48 -20z"/>
</g>
</svg>
